<svg id="icons" xmlns="http://www.w3.org/2000/svg" viewBox="0 0 480.7 480.7">
  <defs>
    <style>
      .cls-1 {
        fill: #e0a9a9;
      }

      .cls-2 {
        fill: #231f20;
      }
    </style>
  </defs>
  <title>icon_search</title>
  <circle id="circle" class="cls-1" cx="240.35" cy="240.35" r="240.35"/>
  <g id="search">
    <path class="cls-2" d="M292.81,198.28A138.89,138.89,0,0,1,291.66,216c-.2,1.47-.44,3-.65,4.43s-.54,2.95-.81,4.43-.63,2.95-.95,4.43-.79,2.93-1.17,4.41a83.27,83.27,0,0,1-17.42,32.68c-1.07,1.15-2.2,2.26-3.36,3.33s-2.43,2-3.65,3l-3.75,2.87c-1.29.9-2.56,1.84-3.86,2.72a96.27,96.27,0,1,1,0-160.07c1.3.88,2.57,1.82,3.86,2.72l3.74,2.88c1.22,1,2.45,2,3.65,3s2.26,2.2,3.33,3.36A84.64,84.64,0,0,1,288,162.89c.39,1.47.84,2.92,1.18,4.4s.68,2.94,1,4.42.57,2.95.81,4.43.47,3,.67,4.42A135.33,135.33,0,0,1,292.81,198.28Zm0,0a68.39,68.39,0,0,0-2.28-17.5c-.35-1.42-.85-2.81-1.27-4.21s-1-2.75-1.55-4.12-1.21-2.67-1.8-4-1.35-2.58-2-3.87a98.12,98.12,0,0,0-21.77-25.88c-1.07-.88-2.1-1.8-3.09-2.75s-2-1.88-3.06-2.78-2.13-1.75-3.24-2.57-2.24-1.62-3.38-2.39a84.29,84.29,0,1,0,0,140.13c1.14-.78,2.25-1.6,3.38-2.39s2.15-1.72,3.23-2.58L259,260.6c1-1,2-1.9,3.06-2.78a100.15,100.15,0,0,0,21.73-25.88c.68-1.27,1.4-2.54,2-3.86s1.28-2.62,1.83-4,1.1-2.71,1.55-4.11.93-2.78,1.29-4.21A67.85,67.85,0,0,0,292.81,198.28Z" transform="translate(-9.65 -9.65)"/>
    <path class="cls-2" d="M268,257.49q5,2.4,9.73,5.05c3.18,1.76,6.28,3.58,9.35,5.44a8.54,8.54,0,0,1,1.83,1.87c.56.66,1.21,1.25,1.82,1.88l3.69,3.69,7.39,7.39,29.57,29.57L361,342l14.78,14.78c3.69,6.17,7.29,12.42,10.54,19-6.61-3.25-12.86-6.86-19-10.54l-14.78-14.79-29.57-29.56L293.36,291.3,286,283.91l-3.7-3.7c-.62-.61-1.21-1.25-1.88-1.81a8.54,8.54,0,0,1-1.86-1.84c-1.86-3.06-3.69-6.17-5.44-9.34S269.63,260.82,268,257.49Z" transform="translate(-9.65 -9.65)"/>
  </g>
</svg>
