<svg id="icons" xmlns="http://www.w3.org/2000/svg" viewBox="0 0 480.7 480.7">
  <defs>
    <style>
      .cls-1 {
        fill: #e0a9a9;
      }

      .cls-2 {
        fill: #231f20;
      }
    </style>
  </defs>
  <title>icon_favourite</title>
  <circle id="circle" class="cls-1" cx="240.35" cy="240.35" r="240.35"/>
  <g id="favourite">
    <path class="cls-2" d="M417.09,202.17q-9.66,10-19.36,20.4c-6.44,6.93-13,14-19.56,21.2s-13.23,14.52-20,21.85-13.67,14.69-20.6,22l1.4-4.42,6.17,28.53c1,4.76,1.82,9.55,2.58,14.35s1.61,9.59,2.46,14.38l10.21,57.43,2.13,12-10.79-5.59L248.1,350.64l5.59,0L150.75,405.53,140,411.25l2-12,19-115.1,1.76,5.3-84-80.93L70,200.09l12-1.82,115.35-17.48-4.5,3.31,51-104.93,5.31-10.94,5.45,10.87,26.13,52.16c2.17,4.34,4.36,8.68,6.61,13s4.44,8.64,6.46,13.07l12.09,26.57-3.71-2.66c9.94,1.75,19.85,3.54,29.67,5.36l29.1,5.53c9.57,1.83,19,3.58,28.36,5.28S407.92,200.68,417.09,202.17Zm0,0q-15.15-1.77-30-3.28c-9.94-1-19.72-1.9-29.41-2.75L329,193.63c-9.44-.86-18.79-1.75-28.11-2.68l-2.37-.23-1.33-2.43-14-25.58c-2.34-4.27-4.49-8.63-6.6-13S272.22,141,270,136.63L243.9,84.48l10.76-.07-51,104.93-1.38,2.84-3.12.47L83.81,210.13l3.27-10.25,84,80.92,2.28,2.19-.52,3.11-19,115.11-8.75-6.27L248,340l2.78-1.48,2.8,1.45,103.6,53.66L348.55,400,338.34,342.6q-1.26-7.19-2.65-14.35c-.93-4.77-1.81-9.55-2.51-14.36L329.13,285l-.39-2.78,1.8-1.63q10.36-9.46,20.92-18.93L373,242.52c7.27-6.47,14.55-13.05,22-19.77S409.68,209.16,417.09,202.17Z" transform="translate(-9.65 -9.65)"/>
  </g>
</svg>
