<svg id="icons" xmlns="http://www.w3.org/2000/svg" viewBox="0 0 480.7 480.7">
  <defs>
    <style>
      .cls-1 {
        fill: #e0a9a9;
      }

      .cls-2 {
        fill: #231f20;
      }

      .cls-3 {
        fill: none;
      }
    </style>
  </defs>
  <title>icon_share</title>
  <circle id="circle" class="cls-1" cx="240.35" cy="240.35" r="240.35"/>
  <g id="share">
    <path class="cls-2" d="M205,261.85a124.8,124.8,0,0,1-.7,13.06,104.68,104.68,0,0,1-2.22,13.21,65.32,65.32,0,0,1-4.57,13.05A56.09,56.09,0,0,1,189.87,313a35.11,35.11,0,0,1-2.51,2.52c-.91.77-1.84,1.5-2.77,2.24s-1.88,1.43-2.82,2.15-1.92,1.38-2.9,2a72.35,72.35,0,0,1-107-32.45,72.32,72.32,0,0,1,107-87.81c1,.66,1.93,1.36,2.9,2.05s1.86,1.46,2.82,2.16,1.85,1.47,2.76,2.23a34.94,34.94,0,0,1,2.47,2.55,57.63,57.63,0,0,1,7.61,11.88,66.5,66.5,0,0,1,4.59,13,102.4,102.4,0,0,1,2.27,13.18A121.85,121.85,0,0,1,205,261.85Zm0,0a46,46,0,0,0-7.1-24.53,64.25,64.25,0,0,0-7.68-9.9,85.63,85.63,0,0,0-8.89-8.22,24.54,24.54,0,0,1-2.24-1.94c-.74-.65-1.44-1.35-2.17-2s-1.53-1.25-2.32-1.85-1.6-1.15-2.42-1.71a61.37,61.37,0,0,0-10.42-5.58,60.32,60.32,0,1,0,0,111.48A60,60,0,0,0,172.19,312c.82-.55,1.61-1.14,2.42-1.7s1.55-1.23,2.31-1.86,1.43-1.37,2.16-2a26,26,0,0,1,2.22-2,89.71,89.71,0,0,0,8.84-8.23,65.45,65.45,0,0,0,7.7-9.88,46.91,46.91,0,0,0,5.32-11.67A46,46,0,0,0,205,261.85Z" transform="translate(-9.65 -9.65)"/>
    <path class="cls-3" d="M361.57,279.31" transform="translate(-9.65 -9.65)"/>
    <path class="cls-3" d="M410.44,328.17" transform="translate(-9.65 -9.65)"/>
    <path class="cls-3" d="M361.57,377" transform="translate(-9.65 -9.65)"/>
    <path class="cls-3" d="M312.7,328.17" transform="translate(-9.65 -9.65)"/>
    <path class="cls-2" d="M193.7,299.38q7,1.11,13.81,2.54t13.59,3a14.5,14.5,0,0,1,3.11,1.41c1,.53,2.06,1,3.09,1.43l6.24,2.78L246,316.13l49.85,22.23-4.88,11-49.86-22.23L216.19,316C208.59,310.67,201,305.26,193.7,299.38Zm0,0c9.28,1.54,18.35,3.53,27.37,5.64L246,316.13l49.85,22.23-4.88,11-49.86-22.23-12.46-5.55-6.23-2.78c-1-.46-2.07-.95-3.14-1.35a14.22,14.22,0,0,1-3.12-1.37c-3.81-2.63-7.59-5.31-11.34-8.08S197.36,302.36,193.7,299.38Z" transform="translate(-9.65 -9.65)"/>
    <path class="cls-2" d="M378.44,341.07c-.47-1.31-1-2.6-1.57-3.88s-1.42-2.41-2.19-3.56a41.29,41.29,0,0,0-2.75-3.13c-1-.94-2.13-1.79-3.19-2.62s-2.32-1.46-3.44-2.16-2.4-1.17-3.53-1.76-2.4-1-3.53-1.47-2.37-.8-3.49-1.25a36.35,36.35,0,0,0-28-2.69A36.73,36.73,0,1,0,361,381.94c.91-.78,1.77-1.63,2.66-2.43s1.6-1.79,2.41-2.68,1.44-1.92,2.11-2.92c.29-.52.53-1.09.82-1.61a9.87,9.87,0,0,1,1.05-1.47c.7-1,1.44-2,2.22-3s1.38-2.11,2.1-3.2,1.31-2.27,1.93-3.46,1.11-2.45,1.61-3.73.83-2.62,1.13-4a40.65,40.65,0,0,0,.48-4.14,41.74,41.74,0,0,0-.21-4.17C379.09,343.8,378.77,342.44,378.44,341.07Zm0,0c.36,1.35.73,2.7,1.17,4s.65,2.74,1.06,4.12.58,2.8.94,4.24.47,2.9.75,4.4.28,3,.41,4.57,0,3.1-.07,4.68-.42,3.12-.69,4.71-.85,3.06-1.33,4.61c-1.25,3-3.43,5.38-5.28,8-1.06,1.19-2.09,2.41-3.19,3.56s-2.32,2.19-3.53,3.22a48.73,48.73,0,1,1-26.5-86c1.58.17,3.16.45,4.73.68s3.1.76,4.65,1.15c3,1.08,6.12,1.87,8.86,3.56,1.28,1,2.54,2,3.72,3s2.22,2.29,3.23,3.49,1.86,2.55,2.7,3.84,1.55,2.68,2.22,4l.93,2.06c.3.68.64,1.33.91,2,.5,1.4,1.07,2.72,1.59,4.05s.94,2.69,1.42,4S378,339.76,378.44,341.07Z" transform="translate(-9.65 -9.65)"/>
    <path class="cls-2" d="M201.54,224.45q5.49-4.45,11.12-8.57c3.75-2.77,7.53-5.45,11.34-8.08a14.22,14.22,0,0,1,3.12-1.37c1.07-.4,2.1-.9,3.14-1.35l6.23-2.78L249,196.74l49.86-22.22,4.89,11L253.84,207.7l-24.93,11.12C219.89,220.92,210.82,222.92,201.54,224.45Zm0,0c7.34-5.87,14.89-11.29,22.49-16.59L249,196.74l49.86-22.22,4.89,11L253.84,207.7l-12.46,5.56L235.14,216c-1,.47-2.08.9-3.09,1.43a14.28,14.28,0,0,1-3.11,1.41c-4.5,1.07-9,2.1-13.59,3S206.2,223.72,201.54,224.45Z" transform="translate(-9.65 -9.65)"/>
    <path class="cls-2" d="M386.28,182.76c-.48,1.31-.9,2.65-1.3,4s-1,2.63-1.42,4-1.08,2.66-1.59,4.05c-.26.7-.6,1.34-.91,2l-.93,2.07c-.67,1.35-1.45,2.67-2.22,4s-1.75,2.57-2.7,3.84-2.1,2.35-3.23,3.5-2.44,2.06-3.72,3c-2.74,1.69-5.88,2.48-8.86,3.56-1.55.39-3.09.81-4.65,1.14s-3.15.52-4.73.69a48.73,48.73,0,1,1,26.5-86c1.21,1,2.36,2.15,3.53,3.23s2.14,2.37,3.2,3.56c1.84,2.58,4,5,5.27,8,.48,1.54,1,3.07,1.33,4.61s.53,3.14.69,4.7.1,3.15.08,4.69-.23,3.07-.42,4.57-.48,3-.75,4.4-.63,2.85-.94,4.24-.72,2.75-1.06,4.12S386.64,181.41,386.28,182.76Zm0,0c.33-1.36.65-2.72.89-4.09a41.78,41.78,0,0,0,.21-4.18,40.13,40.13,0,0,0-.48-4.13c-.3-1.36-.74-2.68-1.13-4s-1.09-2.52-1.61-3.73-1.32-2.33-1.93-3.46-1.45-2.15-2.1-3.2-1.52-2-2.22-3a10,10,0,0,1-1.05-1.48c-.29-.52-.53-1.08-.82-1.6-.67-1-1.39-2-2.11-2.93s-1.58-1.81-2.41-2.68-1.75-1.65-2.66-2.43a36.73,36.73,0,1,0-34.22,63.4,36.37,36.37,0,0,0,27.95-2.69c1.12-.45,2.29-.85,3.49-1.25s2.32-1,3.53-1.47,2.36-1.13,3.54-1.76,2.3-1.38,3.43-2.16,2.18-1.68,3.19-2.63a39,39,0,0,0,2.75-3.12c.77-1.15,1.53-2.33,2.19-3.56S385.81,184.08,386.28,182.76Z" transform="translate(-9.65 -9.65)"/>
  </g>
</svg>
