<svg id="icons" xmlns="http://www.w3.org/2000/svg" viewBox="0 0 480.7 480.7">
  <defs>
    <style>
      .cls-1 {
        fill: #e0a9a9;
      }

      .cls-2 {
        fill: #231f20;
      }
    </style>
  </defs>
  <title>icon_image</title>
  <circle id="circle" class="cls-1" cx="240.35" cy="240.35" r="240.35"/>
  <g id="picture">
    <path class="cls-2" d="M417.55,359.21,336,362.45l-41.44,1.66c-6.94.27-13.84.67-21,.66s-14.23-.1-21.29,0q-84.93.48-169.85.46h-6V134.79H423.56v6l-.11,55.73c-.1,9.27.29,18.7-.21,27.87L422,251.85l-2.34,54.2Zm0,0-2.14-56.06-2.34-55L411.87,221c-.51-9-.12-17.81-.22-26.74l-.1-53.48,6,6H82.45l6-6V359.21l-6-6q82.73,0,165.25.45c6.9.08,13.74,0,20.59,0s13.92.39,20.94.66L331.57,356Z" transform="translate(-9.65 -9.65)"/>
    <path class="cls-2" d="M82.45,359.21q1.8-6.06,3.91-11.9c1.38-3.91,2.85-7.77,4.36-11.6a11.35,11.35,0,0,1,1.68-2.51c.62-.79,1.14-1.65,1.7-2.49l3.33-5,6.67-10.07,26.65-40.29L157.4,235l13.32-20.15c5.9-5.75,11.91-11.43,18.33-16.84-2.46,8-5.34,15.78-8.32,23.46L167.4,241.63l-26.64,40.29-26.65,40.3-6.67,10.07-3.33,5c-.54.85-1.13,1.66-1.63,2.54a10.87,10.87,0,0,1-1.64,2.53c-2.94,2.89-5.91,5.75-9,8.56S85.7,356.52,82.45,359.21Z" transform="translate(-9.65 -9.65)"/>
    <path class="cls-2" d="M189.05,198q4.27,1.09,8.31,2.47c2.71.9,5.35,1.87,8,2.89a4.86,4.86,0,0,1,1.54,1.28c.48.47,1,.86,1.53,1.29l3.12,2.52,6.23,5,24.94,20.14,24.93,20.15,12.46,10.07a167.49,167.49,0,0,1,8.7,14.74,168.85,168.85,0,0,1-16.24-5.4l-12.46-10.08L235.14,243l-24.93-20.15-6.23-5-3.12-2.52a19.11,19.11,0,0,0-1.59-1.22,5.14,5.14,0,0,1-1.57-1.24c-1.54-2.35-3-4.73-4.5-7.19S190.36,200.66,189.05,198Z" transform="translate(-9.65 -9.65)"/>
    <path class="cls-2" d="M288.78,278.61c-.17-.81-.25-1.56-.38-2.34l-.21-2.22c-.14-1.47-.17-2.87-.18-4.24,0-.33.29-.46.52-.61a3.41,3.41,0,0,0,.53-.61l1-1.26,2-2.51,8-10.08,8-10.07,4-5c1.36-.29,2.72-.58,4.18-.79l2.19-.31c.77-.07,1.51-.17,2.32-.21.15.8.22,1.54.34,2.31l.19,2.21c.13,1.47.16,2.85.19,4.24l-4,5-8,10.07-8,10.08-2,2.51-1,1.26a3,3,0,0,0-.46.66c-.11.26-.17.55-.49.64-1.33.31-2.7.6-4.16.8l-2.21.3C290.36,278.5,289.62,278.6,288.78,278.61Z" transform="translate(-9.65 -9.65)"/>
    <path class="cls-2" d="M320.69,238.32q4.47,2.63,8.64,5.49c2.8,1.89,5.52,3.84,8.2,5.83a7.08,7.08,0,0,1,1.5,1.9c.45.67,1,1.28,1.48,1.92l3,3.77,6,7.56L373.8,295,398,325.23l12.1,15.11c2.67,6.14,5.24,12.34,7.43,18.87-5.89-3.56-11.39-7.42-16.79-11.36l-12.11-15.11-24.21-30.23-24.22-30.22-6.05-7.55-3-3.78c-.51-.62-1-1.28-1.54-1.86a7.1,7.1,0,0,1-1.53-1.88c-1.36-3.05-2.67-6.13-3.9-9.28S321.75,241.6,320.69,238.32Z" transform="translate(-9.65 -9.65)"/>
  </g>
</svg>
