<svg id="icons" xmlns="http://www.w3.org/2000/svg" viewBox="0 0 480.7 480.7">
  <defs>
    <style>
      .cls-1 {
        fill: #e0a9a9;
      }

      .cls-2 {
        fill: #231f20;
      }
    </style>
  </defs>
  <title>icon_bookmark</title>
  <circle id="circle" class="cls-1" cx="240.35" cy="240.35" r="240.35"/>
  <g id="bookmark">
    <path class="cls-2" d="M157.14,105.28c2-1.23,4-2.33,5.93-3.31s4-1.91,5.93-2.76a2.76,2.76,0,0,1,1.48,0,12.2,12.2,0,0,0,1.48,0h68.18a104,104,0,0,1,11.86,6,107.37,107.37,0,0,1-11.86,6H172a10.46,10.46,0,0,0-1.48,0,2.76,2.76,0,0,1-1.48,0c-2-.85-3.95-1.76-5.93-2.76S159.12,106.5,157.14,105.28Z" transform="translate(-9.65 -9.65)"/>
    <path class="cls-2" d="M163.14,381.53q-1.9-8.62-3.44-17.24T156.83,347c0-11.51-.14-23-.19-34.53l-.5-69.06-.5-69.07-.25-34.53c.84-5.76,1.68-11.52,2.66-17.29l1.46-8.64c.54-2.88,1-5.76,1.63-8.64.64,2.87,1.17,5.74,1.76,8.62l1.58,8.62c1.06,5.75,2,11.49,2.91,17.24l.25,34.54.5,69.06.5,69.06c.11,11.51.1,23,.31,34.53q-1.2,8.66-2.63,17.29T163.14,381.53Z" transform="translate(-9.65 -9.65)"/>
    <path class="cls-2" d="M254,336.65c-1.2,2.49-2.48,4.87-3.84,7.16s-2.74,4.54-4.18,6.73a4.39,4.39,0,0,1-1.47,1.13,18,18,0,0,0-1.5,1.1L240.08,355l-5.87,4.55-23.46,18.2L187.28,396l-11.73,9.1a147,147,0,0,1-15.41,4.36,148.74,148.74,0,0,1,8.05-13.84l11.74-9.1,23.46-18.2,23.47-18.2,5.86-4.55,2.94-2.28a17.53,17.53,0,0,0,1.44-1.17,4.18,4.18,0,0,1,1.45-1.15c2.48-.85,5-1.65,7.56-2.37S251.29,337.2,254,336.65Z" transform="translate(-9.65 -9.65)"/>
    <path class="cls-2" d="M163.14,316.9q1.83,2.89,3.3,5.78c1,1.93,1.91,3.86,2.76,5.79a2.61,2.61,0,0,1,0,1.44,10.08,10.08,0,0,0,0,1.45v66.52a103.76,103.76,0,0,1-6,11.57,100.49,100.49,0,0,1-6-11.57V331.36a11.78,11.78,0,0,0,0-1.45,2.61,2.61,0,0,1,0-1.44c.85-1.93,1.76-3.86,2.76-5.79S161.91,318.83,163.14,316.9Z" transform="translate(-9.65 -9.65)"/>
    <path class="cls-2" d="M342.86,105.28q-4.67,1.83-9.34,3.3c-3.11,1-6.22,1.91-9.34,2.76a6.75,6.75,0,0,1-2.33,0c-.78-.07-1.56,0-2.34,0H212.12c-6.22-1.76-12.45-3.63-18.68-6,6.23-2.38,12.46-4.25,18.68-6H319.51c.78,0,1.56,0,2.34,0a6.75,6.75,0,0,1,2.33,0c3.12.85,6.23,1.76,9.34,2.76S339.75,104.05,342.86,105.28Z" transform="translate(-9.65 -9.65)"/>
    <path class="cls-2" d="M336.86,381.53q-1.77-8.64-3.18-17.29T331.05,347c.21-11.51.2-23,.31-34.53l.5-69.06.5-69.06.25-34.54c.93-5.75,1.85-11.49,2.91-17.24l1.58-8.62c.59-2.88,1.12-5.75,1.76-8.62.6,2.88,1.09,5.76,1.63,8.64l1.46,8.64c1,5.77,1.82,11.53,2.66,17.29l-.25,34.53-.5,69.07-.5,69.06c-.05,11.51-.22,23-.19,34.53q-1.32,8.63-2.87,17.25T336.86,381.53Z" transform="translate(-9.65 -9.65)"/>
    <path class="cls-2" d="M246,336.65c2.71.55,5.34,1.19,7.89,1.94s5.08,1.52,7.56,2.37a4.18,4.18,0,0,1,1.45,1.15,17.53,17.53,0,0,0,1.44,1.17l2.94,2.28,5.86,4.55,23.47,18.2,23.46,18.2,11.74,9.1a148.74,148.74,0,0,1,8.05,13.84,147,147,0,0,1-15.41-4.36L312.72,396l-23.47-18.2-23.46-18.2L259.92,355,257,352.77a18,18,0,0,0-1.5-1.1,4.39,4.39,0,0,1-1.47-1.13c-1.44-2.19-2.84-4.42-4.18-6.73S247.2,339.14,246,336.65Z" transform="translate(-9.65 -9.65)"/>
    <path class="cls-2" d="M336.86,336.52a52.33,52.33,0,0,1,3.31,4.56c1,1.52,1.91,3,2.76,4.56a1.66,1.66,0,0,1,0,1.14,7.25,7.25,0,0,0-.05,1.14v52.42c-.88,1.52-1.76,3-2.78,4.56l-1.52,2.27c-.57.76-1.08,1.52-1.7,2.28-.61-.76-1.12-1.52-1.69-2.28l-1.52-2.27c-1-1.52-1.9-3-2.79-4.56V347.92a6.21,6.21,0,0,0,0-1.14,1.66,1.66,0,0,1,0-1.14c.85-1.52,1.76-3,2.76-4.56A54.34,54.34,0,0,1,336.86,336.52Z" transform="translate(-9.65 -9.65)"/>
  </g>
</svg>
