<svg id="icons" xmlns="http://www.w3.org/2000/svg" viewBox="0 0 480.7 480.7">
  <defs>
    <style>
      .cls-1 {
        fill: #e0a9a9;
      }

      .cls-2 {
        fill: #231f20;
      }
    </style>
  </defs>
  <title>icon_profile</title>
  <circle id="circle" class="cls-1" cx="240.35" cy="240.35" r="240.35"/>
  <g id="user">
    <path class="cls-2" d="M107.88,360.52l37.75-1.7c12.49-.65,24.77-1.25,37-1.95l9.16-.54c3-.18,6.1-.38,9-.43s5.73,0,8.63,0l8.71-.12L253,355.3c46.38-.58,92.63-.79,139.16-.78l-5.4,8.63c-.83-1.68-1.79-3.51-2.73-5.26s-1.93-3.54-2.91-5.29q-3-5.28-6.14-10.45-6.31-10.35-13.31-20.25a289.29,289.29,0,0,0-30.84-37.08c-11.3-11.33-23.73-21.51-37.45-29.15s-28.78-12.48-44.09-12.76a81.55,81.55,0,0,0-22.71,2.8,98.83,98.83,0,0,0-21.47,8.66,142.11,142.11,0,0,0-19.5,13.2L181,271.39c-.77.62-1.5,1.3-2.23,2l-2.19,2c-3,2.64-5.71,5.56-8.52,8.39-1.41,1.41-2.68,3-4,4.48s-2.66,3-4,4.46-2.76,2.93-4.14,4.4-2.79,2.91-4.1,4.45c-2.65,3.05-5.42,6-7.94,9.21s-5.2,6.26-7.63,9.53-5.05,6.42-7.41,9.75-4.89,6.58-7.16,10l-3.51,5.07c-1.16,1.68-2.38,3.41-3.42,5C112.6,353.28,110.17,356.71,107.88,360.52Zm0,0c1.68-3.39,3.21-7.16,5-11.17.9-2.06,1.81-3.85,2.71-5.72l2.72-5.57c1.78-3.73,3.81-7.34,5.72-11s4-7.27,6.06-10.88,4.29-7.13,6.49-10.67,4.57-7,6.89-10.47c1.15-1.76,2.39-3.45,3.63-5.14s2.47-3.41,3.74-5.08,2.74-3.19,4.18-4.73l2.17-2.3c.71-.78,1.43-1.54,2.19-2.28,3-3,5.87-6.07,9-8.89l2.33-2.16c.78-.72,1.55-1.45,2.38-2.12l4.89-4.09a153.6,153.6,0,0,1,21.28-14.39,111.64,111.64,0,0,1,24.13-9.73,93.64,93.64,0,0,1,26-3.19,97.26,97.26,0,0,1,25.86,4.1,117.61,117.61,0,0,1,23.82,10.16c15,8.37,28.23,19.26,40.12,31.17A300.76,300.76,0,0,1,371.43,315q7.23,10.25,13.75,20.93,3.27,5.34,6.35,10.81,1.55,2.73,3,5.5c1,1.87,2,3.67,2.95,5.68l4.28,8.62h-9.67c-48.22,0-96.71-.21-145.08-.78l-36.23-.47-9.06-.11c-3,0-6.12,0-9.13,0s-5.88-.25-8.76-.43l-8.61-.54-34.06-1.94Z" transform="translate(-9.65 -9.65)"/>
    <path class="cls-2" d="M326.29,160.56a128.27,128.27,0,0,1-.88,15l-.5,3.76c-.18,1.26-.42,2.51-.63,3.77s-.49,2.51-.74,3.78-.62,2.5-.92,3.77a75,75,0,0,1-5.49,14.77,65.72,65.72,0,0,1-8.9,13.38c-.9,1-1.86,2-2.86,2.86s-2.08,1.71-3.13,2.55-2.14,1.64-3.22,2.45-2.18,1.58-3.3,2.33a82.27,82.27,0,0,1-103.91-10.23A82.3,82.3,0,0,1,281.5,84.52a82,82,0,0,1,14.22,7.61c1.12.76,2.2,1.55,3.3,2.33l3.21,2.46c1,.85,2.1,1.68,3.13,2.56s1.93,1.89,2.83,2.89A66.67,66.67,0,0,1,317,115.76a76.44,76.44,0,0,1,5.51,14.75c.31,1.26.67,2.49.93,3.75s.53,2.52.76,3.78.44,2.51.63,3.76l.52,3.76A123.85,123.85,0,0,1,326.29,160.56Zm0,0a55.34,55.34,0,0,0-2-14.78c-.31-1.2-.75-2.37-1.13-3.55s-.91-2.31-1.35-3.45-1.07-2.24-1.6-3.34-1.18-2.16-1.76-3.23a74,74,0,0,0-8.61-11.63,94.57,94.57,0,0,0-10.12-9.73,33.26,33.26,0,0,1-2.6-2.27c-.86-.76-1.68-1.57-2.54-2.34s-1.78-1.45-2.7-2.15-1.87-1.34-2.82-2a70.32,70.32,0,1,0,0,116.91c.95-.65,1.88-1.33,2.82-2s1.81-1.42,2.69-2.16,1.68-1.58,2.54-2.34,1.66-1.58,2.56-2.3a98.51,98.51,0,0,0,10.09-9.75,75.73,75.73,0,0,0,8.62-11.6c.59-1.06,1.22-2.12,1.77-3.22s1.13-2.19,1.61-3.33,1-2.27,1.37-3.45.82-2.34,1.14-3.54A54.94,54.94,0,0,0,326.29,160.56Z" transform="translate(-9.65 -9.65)"/>
  </g>
</svg>
