<svg id="icons" xmlns="http://www.w3.org/2000/svg" viewBox="0 0 480.7 480.7">
  <defs>
    <style>
      .cls-1 {
        fill: #e0a9a9;
      }

      .cls-2 {
        fill: none;
        stroke: #231f20;
        stroke-miterlimit: 10;
        stroke-width: 12px;
      }

      .cls-3 {
        fill: #231f20;
      }
    </style>
  </defs>
  <title>icon_message</title>
  <circle id="circle" class="cls-1" cx="240.35" cy="240.35" r="240.35"/>
  <g id="message">
    <line class="cls-2" x1="89.3" y1="147.06" x2="244.88" y2="238.32"/>
    <line class="cls-2" x1="395.85" y1="147.06" x2="240.27" y2="238.32"/>
    <line class="cls-2" x1="162.49" y1="192.12" x2="162.49" y2="192.12"/>
    <line class="cls-2" x1="162.49" y1="192.12" x2="162.49" y2="192.12"/>
    <path class="cls-3" d="M412.05,351.73,334.75,355l-39.3,1.69c-6.58.29-13.15.65-19.93.58s-13.51-.06-20.22,0q-80.69.5-161.35.46H88V146.27H418.06v6l-.1,51c0,4.25.07,8.53.06,12.79s-.21,8.47-.4,12.67l-1.18,25.1-2.29,49.46Zm0,0q-1-25.91-2.09-51.28l-2.29-50.27-1.18-24.77c-.2-4.11-.42-8.21-.4-12.26s.07-8.08.06-12.14l-.1-48.74,6,6H94l6-6V351.73l-6-6q78.46,0,156.75.46c6.54.05,13.06.06,19.54,0s13.16.29,19.83.58l40.22,1.69Z" transform="translate(-9.65 -9.65)"/>
  </g>
</svg>
