<svg id="icons" xmlns="http://www.w3.org/2000/svg" viewBox="0 0 480.7 480.7">
  <defs>
    <style>
      .cls-1 {
        fill: #e0a9a9;
      }

      .cls-2 {
        fill: #231f20;
      }
    </style>
  </defs>
  <title>icon_home</title>
  <circle id="circle" class="cls-1" cx="240.35" cy="240.35" r="240.35"/>
  <g id="home">
    <path class="cls-2" d="M253,90.51c-10.13,10.52-20.44,20.83-30.77,31.12L206.68,137c-2.61,2.53-5.14,5.18-7.94,7.49s-5.68,4.53-8.43,6.91l-66.59,56.27,2.13-4.59v173.7l-6-6H220.63l-6,6V352.58c0-8.05,0-16.11,0-24.16-.05-2-.14-4-.07-6s.25-4,.39-6l.92-12.08c.61-8.05,1.2-16.1,1.9-24.15L218,277l2.63.22,8.1.68,8.1.7c5.4.51,10.8,1,16.2,1.52-5.4.56-10.8,1-16.2,1.53l-8.1.7-8.1.68,2.91-2.9c.7,8.05,1.29,16.1,1.9,24.15l.92,12.08c.14,2,.33,4,.39,6s0,4-.08,6c-.09,8.05,0,16.11,0,24.16v30.16H113.85V200.26l2.13-1.8,66.59-56.27c2.8-2.31,5.48-4.76,8.22-7.16s5.77-4.41,8.71-6.57l17.71-12.8C229.08,107.19,241,98.75,253,90.51Z" transform="translate(-9.65 -9.65)"/>
    <path class="cls-2" d="M247,91.51c12.06,8.24,24,16.68,35.82,25.15l17.71,12.8c2.94,2.16,6,4.2,8.71,6.57s5.42,4.85,8.22,7.16L384,199.46l2.13,1.8V383.74H273.37V353.58c0-8.05.05-16.11,0-24.16-.06-2-.14-4-.08-6s.25-4,.39-6l.92-12.08c.61-8.05,1.2-16.1,1.9-24.15l2.91,2.9-8.1-.68-8.1-.7c-5.4-.51-10.8-1-16.2-1.53,5.4-.55,10.8-1,16.2-1.52l8.1-.7,8.1-.68L282,278l.28,3.13c.7,8.05,1.29,16.1,1.9,24.15l.92,12.08c.14,2,.33,4,.39,6s0,4-.07,6c-.09,8.05,0,16.11-.05,24.16v24.16l-6-6H380.15l-6,6V204l2.13,4.59-66.59-56.27c-2.75-2.38-5.62-4.61-8.43-6.91s-5.33-5-7.94-7.49l-15.58-15.33C267.41,112.34,257.1,102,247,91.51Z" transform="translate(-9.65 -9.65)"/>
  </g>
</svg>
