<svg id="icons" xmlns="http://www.w3.org/2000/svg" viewBox="0 0 480.7 480.7">
  <defs>
    <style>
      .cls-1 {
        fill: #e0a9a9;
      }

      .cls-2, .cls-3 {
        fill: #231f20;
      }

      .cls-3 {
        stroke: #231f20;
        stroke-miterlimit: 10;
        stroke-width: 13px;
      }
    </style>
  </defs>
  <title>icon_info</title>
  <circle id="circle" class="cls-1" cx="240.35" cy="240.35" r="240.35"/>
  <g id="about">
    <path class="cls-2" d="M399.6,250a186.3,186.3,0,0,1-9.25,58.14,142.42,142.42,0,0,1-30.28,51.93c-1.78,1.82-3.61,3.6-5.47,5.33s-3.9,3.29-5.86,4.91L342.69,375c-2.08,1.47-4.13,3-6.24,4.4a155.66,155.66,0,1,1,0-258.74c2.11,1.42,4.16,2.93,6.24,4.4l6,4.67c2,1.63,3.93,3.24,5.85,4.92s3.67,3.53,5.44,5.36a140.09,140.09,0,0,1,18,24.5,150.93,150.93,0,0,1,12.29,27.41A184.9,184.9,0,0,1,399.6,250Zm0,0a125.87,125.87,0,0,0-3.43-29.08c-.53-2.38-1.27-4.71-1.9-7.06-.3-1.18-.74-2.32-1.13-3.47L392,206.94c-.37-1.16-.88-2.27-1.33-3.39l-1.39-3.37c-.94-2.23-2.05-4.39-3.06-6.58a157.34,157.34,0,0,0-34.63-45.14c-1.78-1.55-3.51-3.13-5.2-4.76s-3.49-3.15-5.27-4.67-3.66-3-5.54-4.37-3.81-2.75-5.76-4.06A143.65,143.65,0,0,0,195,117.32,143.61,143.61,0,0,0,305,382.68a142.54,142.54,0,0,0,24.81-13.28c2-1.31,3.84-2.71,5.76-4.06s3.69-2.92,5.53-4.37l5.26-4.69c1.7-1.62,3.4-3.23,5.18-4.78a159.29,159.29,0,0,0,34.6-45.13c1-2.18,2.12-4.35,3.07-6.58l1.39-3.35c.45-1.13,1-2.24,1.34-3.39l1.2-3.45c.38-1.15.83-2.29,1.13-3.47l1-3.52c.32-1.17.71-2.34.93-3.54A125.19,125.19,0,0,0,399.6,250Z" transform="translate(-9.65 -9.65)"/>
    <path class="cls-2" d="M250,235.25l.89.9.82.89,1.64,1.8c1,1.2,2.05,2.39,3,3.59s1.83,2.39,2.76,3.59,1.72,2.39,2.53,3.59a2.12,2.12,0,0,1-.05,1.79,9,9,0,0,0-.08,1.8v82.57l-2.57,3.59c-.91,1.2-1.77,2.39-2.74,3.59s-1.93,2.39-2.94,3.59-2.07,2.39-3.25,3.59c-1.18-1.2-2.16-2.39-3.25-3.59s-2-2.39-2.94-3.59-1.83-2.39-2.74-3.59l-2.57-3.59V253.2a9,9,0,0,0-.08-1.8,2.12,2.12,0,0,1,0-1.79c.81-1.2,1.68-2.39,2.53-3.59s1.77-2.39,2.76-3.59,2-2.39,3-3.59l1.64-1.8.82-.89Z" transform="translate(-9.65 -9.65)"/>
    <circle class="cls-3" cx="240.35" cy="178.41" r="11.97"/>
  </g>
</svg>
