<svg id="icons" xmlns="http://www.w3.org/2000/svg" viewBox="0 0 480.7 480.7">
  <defs>
    <style>
      .cls-1 {
        fill: #e0a9a9;
      }

      .cls-2 {
        fill: #231f20;
      }
    </style>
  </defs>
  <title>icon_cloud</title>
  <circle id="circle" class="cls-1" cx="240.35" cy="240.35" r="240.35"/>
  <g id="cloud">
    <path class="cls-2" d="M298,326.5l19.89-1.28c6.63-.43,13.26-.79,19.89-1.16l19.9-1.12,19.89-1-.63,0c.6-.13,1.44-.33,2.17-.53s1.52-.42,2.28-.66q2.28-.7,4.51-1.56a69.09,69.09,0,0,0,8.58-4,59.27,59.27,0,0,0,7.69-5.1,63.59,63.59,0,0,0,6.72-5.9,34,34,0,0,0,8.51-15.06,21.7,21.7,0,0,0,.51-2.15,22.06,22.06,0,0,0,.4-2.18l.3-2.21.22-2.44c.25-3.26.45-6.52.46-9.73a68.9,68.9,0,0,0-2.1-18.57A38.91,38.91,0,0,0,409,236.35a52.37,52.37,0,0,0-14.37-11.15,109.33,109.33,0,0,0-17.75-7.55l1.9.31H353.72l2.21-7.76c.11-.37.28-1,.41-1.57s.27-1.17.39-1.77c.25-1.19.46-2.41.65-3.63.38-2.45.63-4.92.81-7.4a84.62,84.62,0,0,0-.41-14.85,67.67,67.67,0,0,0-9.44-27.58,71.34,71.34,0,0,0-8.95-11.58,85.73,85.73,0,0,0-11.29-9.57,96.68,96.68,0,0,0-13-7.55,97.78,97.78,0,0,0-13.93-5.58,82,82,0,0,0-14.54-3l-1.84-.22c-.61,0-1.23-.07-1.85-.1-1.23-.06-2.46-.15-3.69-.18-2.46.06-4.93,0-7.38.3s-4.89.6-7.33,1l-3.61.78c-1.22.23-2.39.65-3.58,1A81.24,81.24,0,0,0,243.5,124a95.88,95.88,0,0,0-24.27,17.47,83.74,83.74,0,0,0-9.64,11.34,52.64,52.64,0,0,0-3.74,6.1l-.72,1.51c-.24.5-.39,1-.59,1.46a3.9,3.9,0,0,0-.23.68l-.19.64a1.86,1.86,0,0,0-.11.52,3.43,3.43,0,0,1-.09.44l-.5,2L198.6,177,194,187.45l-6.12-10-.41-.67c-.18-.28-.35-.55-.54-.82-.38-.55-.78-1.1-1.21-1.63a34.2,34.2,0,0,0-2.7-3.08,31.26,31.26,0,0,0-6.27-5,25.1,25.1,0,0,0-14.78-3.66c-5.22.28-10.54,2.22-15.59,4.91A79.62,79.62,0,0,0,132,177.86l-1.31.88.18-.09,0,0h0l-.09.06c-.06,0-.17.15-.26.21a6.74,6.74,0,0,0-.64.66c-.23.23-.42.56-.65.83l-.59,1a16.87,16.87,0,0,0-1.69,4.83,26.49,26.49,0,0,0-.43,2.78c-.1.95-.12,1.95-.18,2.92s0,2,.08,3l.26,3.09.44,5.06-4.86,1.44-1,.28-1.07.35c-.72.24-1.45.49-2.18.76-1.44.53-2.89,1.11-4.31,1.72a82.57,82.57,0,0,0-8.3,4.18A57.67,57.67,0,0,0,91.35,223a36.55,36.55,0,0,0-8.29,14.85l-.47,2.06c-.16.69-.22,1.4-.34,2.09s-.2,1.5-.29,2.32l-.25,2.45c-.34,3.26-.63,6.49-.81,9.69A86.25,86.25,0,0,0,81.54,275a44.38,44.38,0,0,0,6,16.47,47.72,47.72,0,0,0,5.45,7c2.06,2.16,4.13,4.38,6.43,6.45a102.3,102.3,0,0,0,15.25,11.27l-2.32-.59L134,316.7l21.7,1.19,21.7,1.24,21.71,1.34-21.71,1.35-21.7,1.24L134,324.25l-21.7,1.08-1,.05-1.31-.64A113.37,113.37,0,0,1,92,314,54.73,54.73,0,0,1,77.3,297.8,56.64,56.64,0,0,1,69.7,277a98.25,98.25,0,0,1-.78-21.24c.2-3.45.5-6.85.85-10.22L70,243c.09-.83.17-1.64.33-2.64s.25-1.9.46-2.83l.64-2.81a48.69,48.69,0,0,1,11-19.76,69.64,69.64,0,0,1,17-13.54A90.76,90.76,0,0,1,109,196.6q2.44-1,4.95-2c.84-.31,1.69-.6,2.55-.89l1.3-.42,1.43-.41-4.42,6.5-.33-3.8c-.06-1.29-.07-2.59-.09-3.89s.09-2.63.23-4a38.83,38.83,0,0,1,.63-4,28.86,28.86,0,0,1,2.92-8.15c.38-.66.8-1.32,1.22-2a21.63,21.63,0,0,1,1.48-1.9,20.17,20.17,0,0,1,1.78-1.81c.36-.29.67-.57,1.08-.86l.62-.44.38-.23.22-.13.37-.2-1.31.88A92.07,92.07,0,0,1,140.62,157l2.35-1.19,1.17-.59c.41-.19.82-.35,1.23-.53l2.46-1c.84-.31,1.71-.58,2.56-.87a42.2,42.2,0,0,1,10.82-2.12A37.14,37.14,0,0,1,182.92,156a43.56,43.56,0,0,1,8.64,6.86,48.09,48.09,0,0,1,3.59,4.1c.57.72,1.11,1.45,1.63,2.22.27.37.52.77.78,1.17s.48.75.83,1.37l-10.75.44,4.82-10.86-.5,2c.07-.51.14-1,.22-1.53a9.66,9.66,0,0,1,.3-1.43l.37-1.28a8.56,8.56,0,0,1,.41-1.21c.29-.75.58-1.54.9-2.25l1-2.08a63.73,63.73,0,0,1,4.6-7.53,94.92,94.92,0,0,1,11-13,107.78,107.78,0,0,1,27.37-19.69,93.26,93.26,0,0,1,15.87-6.2c1.38-.36,2.73-.83,4.14-1.1l4.19-.91c2.82-.43,5.64-1,8.5-1.12s5.71-.29,8.58-.35c1.42,0,2.85.13,4.28.2.71,0,1.43.06,2.14.12l2.13.26a94.31,94.31,0,0,1,16.7,3.45A115.69,115.69,0,0,1,335,122.41a97.34,97.34,0,0,1,13,11.08,82.5,82.5,0,0,1,10.56,13.65,79.61,79.61,0,0,1,11.11,32.4,95.3,95.3,0,0,1,.47,17.05c-.19,2.83-.48,5.66-.92,8.48-.22,1.41-.47,2.81-.76,4.23-.15.7-.3,1.41-.47,2.13s-.34,1.38-.61,2.28L361.67,206h18.12l.91.31a120.72,120.72,0,0,1,19.74,8.42,64.25,64.25,0,0,1,17.64,13.79,51.11,51.11,0,0,1,10.7,20.23,80.53,80.53,0,0,1,2.53,21.83c0,3.59-.23,7.13-.51,10.64l-.23,2.64-.38,2.85c-.1.95-.34,1.89-.52,2.83a27.31,27.31,0,0,1-.67,2.81,49.55,49.55,0,0,1-11.14,20.22,44.74,44.74,0,0,1-8.62,7.5,63.1,63.1,0,0,1-9.85,5.25,80.24,80.24,0,0,1-10.34,3.61c-1.75.48-3.51.89-5.29,1.25-.89.18-1.79.35-2.69.5s-1.76.27-2.85.39l-.46.05h-.17l-19.89-1L337.8,329c-6.63-.37-13.26-.74-19.89-1.17Z" transform="translate(-9.65 -9.65)"/>
    <path class="cls-2" d="M248.9,369.54c-1.21-2.76-2.29-5.53-3.24-8.29S243.8,355.72,243,353a5.16,5.16,0,0,1,0-2.07c.07-.68,0-1.37.06-2.06l0-4.14.07-8.26.28-33.07.27-33.06.14-16.54c1.8-5.49,3.72-11,6.14-16.48a174.61,174.61,0,0,1,5.86,16.58l-.14,16.54-.27,33.06-.28,33.07-.07,8.27,0,4.13a20.42,20.42,0,0,0,0,2.07,5.29,5.29,0,0,1,0,2.06c-.88,2.75-1.81,5.5-2.83,8.25S250.14,366.8,248.9,369.54Z" transform="translate(-9.65 -9.65)"/>
    <path class="cls-2" d="M293.37,276.31c-.89,0-1.69,0-2.54,0l-2.4-.17c-1.59-.12-3.09-.34-4.56-.58-.36-.08-.49-.38-.65-.66a4,4,0,0,0-.63-.67l-1.31-1.28-2.64-2.57L268.1,260.1l-10.54-10.26-5.27-5.13c-.26-1.49-.52-3-.69-4.56l-.26-2.37c0-.84-.12-1.63-.13-2.5.87,0,1.66.05,2.5.07l2.38.19c1.58.13,3.08.35,4.57.57l5.27,5.13,10.54,10.26L287,261.75l2.64,2.57L291,265.6a5,5,0,0,0,.69.61c.28.15.59.27.68.63.28,1.46.53,3,.7,4.54l.24,2.39C293.3,274.62,293.38,275.42,293.37,276.31Z" transform="translate(-9.65 -9.65)"/>
    <path class="cls-2" d="M205,277.66c0-.92.16-1.75.24-2.62l.37-2.47c.26-1.64.61-3.18,1-4.7.11-.36.43-.49.73-.66a5,5,0,0,0,.75-.63l1.43-1.34,2.87-2.68,11.46-10.71,11.46-10.71,5.74-5.36c1.55-.25,3.11-.49,4.76-.65l2.47-.22c.87,0,1.7-.11,2.59-.1,0,.9-.18,1.72-.27,2.58l-.39,2.45c-.27,1.63-.62,3.17-1,4.71l-5.73,5.36L232,260.62l-11.46,10.71L217.69,274l-1.43,1.34a5.08,5.08,0,0,0-.69.7c-.18.28-.33.6-.7.68-1.54.27-3.1.51-4.75.66l-2.49.21C206.75,277.61,205.92,277.68,205,277.66Z" transform="translate(-9.65 -9.65)"/>
  </g>
</svg>
